<?xml version="1.0" standalone="no"?>
<!DOCTYPE svg PUBLIC "-//W3C//DTD SVG 20010904//EN"
 "http://www.w3.org/TR/2001/REC-SVG-20010904/DTD/svg10.dtd">
<svg version="1.0" xmlns="http://www.w3.org/2000/svg"
 width="1500.000000pt" height="1500.000000pt" viewBox="0 0 1500.000000 1500.000000"
 preserveAspectRatio="xMidYMid meet">
<metadata>
Created by potrace 1.14, written by Peter Selinger 2001-2017
</metadata>
<g transform="translate(0.000000,1500.000000) scale(0.100000,-0.100000)"
fill="#000000" stroke="none">
<path d="M7350 14337 c-3 -3 -36 -7 -73 -11 -104 -10 -279 -40 -297 -51 -3 -2
-17 -6 -31 -9 -42 -8 -161 -47 -224 -73 -384 -160 -713 -432 -932 -770 -29
-46 -53 -87 -53 -92 0 -5 -3 -11 -7 -13 -28 -12 -177 -380 -198 -488 -1 -8
-14 -72 -20 -100 -3 -14 -8 -40 -11 -59 -3 -18 -7 -42 -9 -52 -5 -27 -18 -207
-18 -264 -1 -59 11 -230 18 -265 3 -14 8 -49 11 -79 3 -30 8 -59 10 -63 3 -5
8 -21 10 -36 19 -105 78 -278 145 -420 21 -46 39 -87 39 -91 0 -4 -15 -9 -32
-9 -41 -3 -60 -6 -73 -13 -5 -4 -23 -9 -39 -13 -33 -8 -89 -48 -128 -91 -22
-24 -70 -106 -73 -125 -23 -132 -21 -162 11 -248 49 -130 136 -200 269 -218
22 -3 46 -7 53 -9 9 -4 12 -835 12 -4113 l0 -4109 -52 -6 c-72 -9 -78 -10
-123 -34 -144 -77 -219 -262 -171 -423 46 -154 149 -239 312 -256 36 -4 56
-13 80 -37 48 -49 113 -107 179 -162 33 -27 62 -53 63 -57 2 -5 8 -8 13 -8 6
0 34 -18 64 -40 30 -22 56 -40 59 -40 2 0 33 -17 67 -38 82 -49 223 -117 252
-121 4 0 20 -7 35 -15 73 -37 389 -115 537 -131 33 -4 62 -9 64 -11 2 -2 6
-20 8 -41 10 -98 44 -174 107 -241 121 -130 303 -162 460 -81 117 60 197 194
215 360 1 4 25 10 54 13 88 12 119 17 192 33 39 8 77 16 85 17 32 4 251 75
315 101 220 92 458 251 632 423 70 68 75 71 130 77 212 23 338 136 359 321 7
56 -13 150 -45 211 -38 75 -124 149 -196 168 -47 13 -57 14 -100 16 l-41 2 0
4109 c0 2895 3 4108 10 4110 73 10 114 21 171 47 83 38 129 81 165 155 70 143
47 296 -60 405 -65 66 -177 111 -280 114 -27 0 -50 3 -50 6 0 2 13 32 29 65
87 181 162 407 177 531 3 22 7 51 10 65 20 92 26 448 10 519 -3 12 -8 43 -11
68 -2 25 -9 62 -14 82 -6 20 -12 47 -15 61 -10 52 -15 70 -39 146 -192 607
-673 1099 -1267 1298 -78 26 -167 51 -210 60 -14 3 -34 7 -45 9 -11 3 -45 8
-75 12 -30 5 -64 10 -75 12 -33 5 -341 14 -345 10z m310 -161 c206 -20 418
-81 605 -173 85 -42 234 -129 245 -142 3 -3 31 -25 62 -48 252 -188 466 -471
596 -788 40 -98 95 -291 106 -370 4 -22 8 -51 11 -65 16 -94 22 -332 10 -415
-2 -16 -7 -57 -11 -90 -8 -78 -54 -258 -94 -365 -33 -89 -121 -271 -149 -309
l-17 -22 -1558 0 c-857 0 -1562 3 -1567 8 -4 4 -34 60 -67 123 -134 261 -193
503 -197 809 -1 90 2 185 6 210 4 25 10 66 13 91 6 43 10 68 21 118 3 12 7 34
10 50 3 15 24 81 46 146 70 207 181 406 320 572 68 82 189 203 244 246 17 12
39 31 49 40 11 10 49 37 85 62 273 182 565 286 876 312 44 3 81 7 82 8 6 5
203 -2 273 -8z m-800 -2935 c309 6 2373 -6 2465 -15 17 -2 37 -4 47 -5 24 -2
85 -65 103 -107 28 -67 13 -181 -28 -215 -44 -36 -157 -53 -427 -64 -235 -10
-3347 -1 -3380 9 -42 14 -89 55 -110 96 -53 103 -18 224 77 271 41 20 62 21
554 24 281 2 513 5 514 7 2 2 32 2 67 0 34 -1 88 -2 118 -1z m2205 -1476 c-1
-623 -2 -688 -17 -696 -9 -5 -90 -41 -179 -79 -89 -39 -176 -77 -193 -85 -89
-40 -161 -71 -256 -112 -127 -54 -146 -62 -233 -102 -37 -17 -69 -31 -72 -31
-2 0 -33 -13 -67 -29 -35 -15 -92 -41 -128 -56 -36 -15 -87 -38 -115 -50 -27
-13 -84 -37 -125 -55 -79 -33 -102 -43 -190 -83 -30 -14 -104 -46 -165 -72
-60 -25 -114 -51 -119 -56 -6 -5 -16 -9 -24 -9 -8 0 -46 -15 -85 -34 -40 -19
-100 -46 -134 -60 -35 -14 -87 -37 -117 -51 -30 -14 -57 -25 -60 -25 -2 0 -33
-13 -68 -29 -35 -16 -153 -68 -263 -116 -110 -48 -213 -93 -230 -101 -78 -35
-308 -134 -311 -134 -2 0 -3 311 -2 692 l3 691 81 36 c133 59 182 80 339 148
83 36 164 71 180 78 17 8 50 22 75 33 25 11 160 70 300 132 140 61 323 141
405 177 83 36 177 78 210 93 33 15 71 31 85 35 14 4 30 11 35 15 6 5 33 17 60
28 28 11 75 31 105 45 52 24 393 173 670 294 69 29 134 58 145 63 201 90 451
197 455 195 3 -2 5 -312 5 -690z m0 -3120 l0 -603 -75 -32 c-41 -18 -104 -45
-140 -60 -36 -15 -91 -39 -123 -54 -32 -14 -60 -26 -62 -26 -2 0 -32 -13 -67
-29 -35 -16 -169 -75 -298 -131 -129 -56 -253 -111 -275 -120 -23 -10 -90 -40
-150 -65 -61 -26 -132 -57 -160 -69 -27 -13 -79 -36 -115 -51 -36 -15 -87 -38
-115 -50 -27 -13 -156 -69 -285 -125 -129 -56 -257 -112 -285 -125 -133 -59
-341 -150 -345 -151 -3 0 -25 -10 -50 -21 -25 -11 -124 -55 -220 -98 -96 -43
-197 -88 -225 -100 -27 -13 -76 -35 -107 -48 l-58 -26 3 610 2 611 462 201
c253 111 478 209 500 218 73 32 298 131 343 151 25 11 95 42 155 68 61 26 136
59 168 74 31 14 85 38 120 52 34 14 85 36 112 49 28 12 208 91 400 175 193 84
370 162 395 173 25 11 47 21 50 22 24 8 311 134 375 164 33 16 62 27 65 24 2
-2 4 -276 5 -608z m-1 -3013 c-1 -304 -3 -554 -5 -556 -2 -2 -51 -24 -109 -49
-58 -25 -127 -56 -155 -68 -27 -12 -54 -23 -60 -24 -5 -2 -46 -19 -90 -40 -44
-20 -93 -42 -110 -50 -16 -7 -120 -52 -230 -100 -110 -48 -229 -101 -265 -118
l-65 -30 -1030 -1 -1030 -1 -5 95 c-7 129 -3 160 24 170 11 4 46 19 76 33 30
14 105 46 165 72 113 48 136 59 215 93 147 65 420 184 430 187 3 1 27 11 53
23 27 12 81 36 120 53 40 17 97 43 127 56 30 14 64 29 75 33 18 7 324 141 400
175 17 7 89 39 160 70 72 31 141 62 155 70 14 7 27 13 30 13 3 0 37 14 75 32
39 17 75 33 80 34 6 2 32 13 58 24 27 12 81 36 120 53 64 28 112 49 212 94 28
13 132 58 380 166 55 24 120 53 145 65 l45 22 5 -22 c3 -11 5 -270 4 -574z
m306 -1355 c127 -57 159 -224 62 -326 -41 -42 -65 -49 -218 -56 -95 -5 -931
-7 -2439 -6 -1067 2 -1122 2 -1161 20 -89 40 -130 157 -94 266 15 46 80 102
127 110 21 4 41 7 46 8 4 1 825 2 1825 1 1632 -1 1821 -2 1852 -17z m-3097
-521 c3 3 181 5 277 3 8 -1 26 0 40 1 14 1 108 2 210 2 102 -1 192 -1 200 0 8
0 29 -1 45 -2 17 -1 127 -1 245 -1 118 0 220 0 225 -1 6 0 21 1 35 2 14 1 108
2 210 2 102 -1 192 -1 200 -1 20 0 619 0 645 0 168 -1 389 0 394 4 4 2 13 0
21 -5 21 -13 -66 -95 -190 -180 -82 -57 -229 -143 -250 -146 -3 0 -27 -11 -55
-23 -74 -33 -282 -105 -335 -116 -7 -1 -83 -18 -95 -20 -28 -7 -134 -27 -160
-31 -16 -2 -39 -6 -51 -8 -104 -21 -556 -29 -699 -13 -38 4 -83 9 -100 11 -60
7 -202 33 -270 49 -11 3 -42 10 -70 17 -64 14 -217 65 -272 91 -24 10 -45 19
-49 19 -12 0 -182 89 -239 125 -103 66 -265 200 -265 220 0 3 61 5 136 4 74 0
138 1 140 4 3 3 20 1 39 -3 19 -4 36 -6 38 -4z m1439 -651 c15 -20 8 -106 -12
-145 -86 -168 -332 -181 -414 -22 -22 42 -34 115 -27 167 1 6 83 10 224 10
136 0 225 -4 229 -10z"/>
<path d="M7315 13944 c-241 -51 -427 -135 -620 -283 -120 -91 -300 -288 -381
-416 -10 -16 -21 -32 -24 -35 -3 -3 -31 -54 -62 -115 -105 -204 -173 -425
-196 -630 -9 -81 -8 -326 1 -400 13 -109 17 -130 23 -155 4 -14 8 -32 10 -40
2 -8 13 -54 26 -102 24 -94 32 -98 65 -34 26 50 115 167 170 222 124 125 273
189 464 199 41 2 75 4 76 4 2 1 -33 110 -44 141 -4 8 -8 26 -10 40 -2 14 -8
36 -13 50 -5 14 -12 45 -16 70 -3 25 -8 54 -11 65 -23 107 -22 382 2 504 47
240 153 457 325 666 13 17 76 81 138 143 62 61 110 111 105 111 -4 -1 -17 -3
-28 -5z"/>
</g>
</svg>
